# xmcd CD database file
#
# Track frame offsets:
#       150
#       15484
#       28650
#       50858
#       77274
#       93745
#       117629
#       158241
#       182490
#       204491
#
# Disc length: 2975 seconds
#
# Revision: 2
# Processed by: cddbd v1.5.2PL0 Copyright (c) Steve Scherf et al.
# Submitted via: jack 3.1.1
#
DISCID=7d0b9d0a
DTITLE=Bad Brad and the Fat Cats - Eyes On The Prize
DYEAR=2013
DGENRE=Blues
TTITLE0=Payin' My Dues
TTITLE1=Backburner
TTITLE2=Eyes On tThe Prize
TTITLE3=I'd Like To Stay
TTITLE4=What I Want
TTITLE5=Thunder On The Mountain
TTITLE6=You Left Us Here
TTITLE7=Sleep When Im Dead
TTITLE8=This World Is Insane
TTITLE9=Got Drunk
EXTD=
EXTT0=
EXTT1=
EXTT2=
EXTT3=
EXTT4=
EXTT5=
EXTT6=
EXTT7=
EXTT8=
EXTT9=
PLAYORDER=
